#!OML:ASF H:\Pregnant\Project 1\Capture day 1\Session 1\femalepreg.ASF
:FULLY-SPECIFIED
:DEGREES
303
root 4.9864 15.708 1.6076 -161.38 3.87482 -177.714
lowerback -17.3099 3.5441 -6.6587
upperback -5.71189 7.82335 -8.61701
thorax 3.93781 4.49405 -3.78424
lowerneck 2.65847 22.2241 23.1337
upperneck 5.13248 30.4864 -12.0211
head 6.31919 15.2353 -4.11195
rclavicle -4.37326e-014 1.78111e-013
rhumerus -53.6406 -9.51707 -76.4142
rradius 26.2355
rwrist 3.83174
rhand 1.64188 -18.2848
rfingers 7.12502
rthumb 27.162 -46.3499
lclavicle -4.37326e-014 1.78111e-013
lhumerus -27.6615 -25.0158 82.6517
lradius 38.1084
lwrist 51.9758
lhand -25.0063 -6.18493
lfingers 7.12502
lthumb 1.50545 23.7895
rfemur -22.7815 9.52439 22.7618
rtibia 48.2438
rfoot -9.25907 7.34576
rtoes -19.4391
lfemur -37.3776 -11.6684 -19.4684
ltibia 37.1903
lfoot -14.2415 7.57185
ltoes -11.5661
304
root 4.96933 15.7018 1.56244 -161.517 3.5295 -177.82
lowerback -17.0471 3.57786 -6.64858
upperback -5.66583 7.83098 -8.62185
thorax 3.84938 4.49659 -3.81372
lowerneck 2.66511 22.2661 23.0711
upperneck 5.01258 30.5606 -12.1797
head 6.30916 15.268 -4.14048
rclavicle -8.17005e-014 1.17681e-013
rhumerus -53.4686 -9.31688 -76.666
rradius 26.8702
rwrist 3.20203
rhand 0.899698 -18.3165
rfingers 7.12502
rthumb 26.4518 -46.4905
lclavicle -8.17005e-014 1.17681e-013
lhumerus -27.8581 -25.68 82.9674
lradius 38.1396
lwrist 52.055
lhand -25.0027 -5.98281
lfingers 7.12502
lthumb 1.50898 23.9916
rfemur -23.5929 8.95106 22.6038
rtibia 49.7946
rfoot -8.22512 7.31115
rtoes -20.0971
lfemur -37.048 -11.8421 -19.6968
ltibia 37.0984
lfoot -14.3598 7.36468
ltoes -11.4997
305
root 4.95318 15.6957 1.5192 -161.649 3.17522 -177.949
lowerback -16.7701 3.59862 -6.66897
upperback -5.6172 7.82389 -8.61756
thorax 3.75022 4.49183 -3.82108
lowerneck 2.67714 22.3009 23.0151
upperneck 4.90318 30.6266 -12.3395
head 6.30182 15.2971 -4.17141
rclavicle -1.17681e-013 1.30403e-013
rhumerus -53.2826 -9.12996 -76.8965
rradius 27.5351
rwrist 2.50099
rhand -0.0401446 -18.3204
rfingers 7.12502
rthumb 25.5519 -46.6267
lclavicle -1.17681e-013 1.30403e-013
lhumerus -28.0382 -26.3474 83.2896
lradius 38.0835
lwrist 51.9557
lhand -25.0272 -5.80079
lfingers 7.12502
lthumb 1.48528 24.1738
rfemur -24.4617 8.43446 22.431
rtibia 51.3767
rfoot -7.35446 7.0959
rtoes -20.9889
lfemur -36.718 -12.015 -19.9432
ltibia 36.9833
lfoot -14.4637 7.13968
ltoes -11.434
306
root 4.93828 15.6895 1.47766 -161.772 2.81107 -178.105
lowerback -16.4844 3.60796 -6.72436
upperback -5.56739 7.80651 -8.60798
thorax 3.64197 4.48239 -3.8066
lowerneck 2.69588 22.328 22.9669
upperneck 4.80067 30.6836 -12.5006
head 6.29579 15.3222 -4.20535
rclavicle -1.98785e-015 8.26944e-014
rhumerus -53.0889 -8.97937 -77.0927
rradius 28.2268
rwrist 1.76446
rhand -1.16323 -18.2904
rfingers 7.12502
rthumb 24.4757 -46.7465
lclavicle -1.98785e-015 8.26944e-014
lhumerus -28.2 -27.0193 83.6162
lradius 37.9424
lwrist 51.6957
lhand -25.0445 -5.63744
lfingers 7.12502
lthumb 1.46859 24.3372
rfemur -25.3869 7.9693 22.2427
rtibia 52.9884
rfoot -6.72445 6.72045
rtoes -21.9234
lfemur -36.3906 -12.1883 -20.2101
ltibia 36.8431
lfoot -14.5539 6.89801
ltoes -11.3737
307
root 4.92483 15.6834 1.43736 -161.881 2.43951 -178.29
lowerback -16.1969 3.60744 -6.81857
upperback -5.51732 7.7827 -8.59482
thorax 3.52725 4.47039 -3.76866
lowerneck 2.7176 22.3487 22.9233
upperneck 4.70647 30.7327 -12.6595
head 6.2912 15.3438 -4.24048
rclavicle -8.05078e-014 1.36764e-013
rhumerus -52.8842 -8.85653 -77.2676
rradius 28.9352
rwrist 0.986503
rhand -2.45055 -18.2272
rfingers 7.12502
rthumb 23.2412 -46.8447
lclavicle -8.05078e-014 1.36764e-013
lhumerus -28.3474 -27.7038 83.947
lradius 37.7228
lwrist 51.3012
lhand -25.0271 -5.502
lfingers 7.12502
lthumb 1.48538 24.4726
rfemur -26.3694 7.55022 22.0362
rtibia 54.6248
rfoot -6.37992 6.20382
rtoes -22.6983
lfemur -36.0671 -12.3627 -20.499
ltibia 36.6763
lfoot -14.6302 6.64039
ltoes -11.3143
308
root 4.91294 15.6772 1.39781 -161.978 2.0622 -178.5
lowerback -15.9162 3.60069 -6.94826
upperback -5.46063 7.75672 -8.57633
thorax 3.4178 4.45707 -3.70528
lowerneck 2.7347 22.3656 22.8757
upperneck 4.61631 30.7759 -12.8187
head 6.28731 15.3624 -4.27583
rclavicle -1.78906e-015 -1.01778e-013
rhumerus -52.6739 -8.76085 -77.4212
rradius 29.6916
rwrist 0.171872
rhand -3.868 -18.1391
rfingers 7.12502
rthumb 21.8807 -46.9219
lclavicle -1.78906e-015 -1.01778e-013
lhumerus -28.4677 -28.3912 84.2798
lradius 37.4272
lwrist 50.7871
lhand -24.9892 -5.37533
lfingers 7.12502
lthumb 1.522 24.599
rfemur -27.4055 7.17351 21.8149
rtibia 56.2757
rfoot -6.32996 5.54504
rtoes -23.2456
lfemur -35.743 -12.5461 -20.8035
ltibia 36.4815
lfoot -14.6924 6.37943
ltoes -11.2522
309
root 4.90253 15.6713 1.35835 -162.068 1.67776 -178.728
lowerback -15.641 3.59145 -7.10394
upperback -5.39751 7.73123 -8.55233
thorax 3.31396 4.44359 -3.6211
lowerneck 2.75594 22.3769 22.827
upperneck 4.52712 30.8124 -12.9786
head 6.28215 15.3781 -4.31304
rclavicle 3.8763e-014 -1.17681e-013
rhumerus -52.4437 -8.70279 -77.5496
rradius 30.4565
rwrist -0.659474
rhand -5.39143 -18.0214
rfingers 7.12502
rthumb 20.4173 -46.968
lclavicle 3.8763e-014 -1.17681e-013
lhumerus -28.5647 -29.0825 84.613
lradius 37.0568
lwrist 50.1791
lhand -24.9028 -5.28813
lfingers 7.12502
lthumb 1.6054 24.6856
rfemur -28.4842 6.83429 21.5847
rtibia 57.9238
rfoot -6.52979 4.74936
rtoes -23.5041
lfemur -35.4099 -12.7378 -21.1178
ltibia 36.2599
lfoot -14.7435 6.11641
ltoes -11.182
310
root 4.89345 15.6657 1.31834 -162.158 1.2851 -178.966
lowerback -15.371 3.57979 -7.27691
upperback -5.32958 7.7044 -8.52186
thorax 3.21476 4.42903 -3.52034
lowerneck 2.80502 22.3817 22.7908
upperneck 4.43169 30.8454 -13.1454
head 6.27338 15.3932 -4.35722
rclavicle -4.81059e-014 1.59028e-014
rhumerus -52.201 -8.68866 -77.6481
rradius 31.2268
rwrist -1.48314
rhand -6.98598 -17.8758
rfingers 7.12502
rthumb 18.8843 -46.9791
lclavicle -4.81059e-014 1.59028e-014
lhumerus -28.6504 -29.7686 84.9435
lradius 36.6184
lwrist 49.4891
lhand -24.7896 -5.2344
lfingers 7.12502
lthumb 1.71476 24.7385
rfemur -29.5904 6.53032 21.349
rtibia 59.5452
rfoot -6.89739 3.83217
rtoes -23.5182
lfemur -35.0578 -12.9402 -21.4378
ltibia 36.0149
lfoot -14.7887 5.85759
ltoes -11.1182
311
root 4.88585 15.6604 1.27783 -162.245 0.8739 -179.207
lowerback -15.1039 3.56652 -7.46096
upperback -5.25429 7.6745 -8.47967
thorax 3.12166 4.41185 -3.4012
lowerneck 2.86255 22.382 22.7527
upperneck 4.33881 30.874 -13.3128
head 6.26343 15.4067 -4.40313
rclavicle 3.12092e-014 7.31528e-014
rhumerus -51.9255 -8.7115 -77.7171
rradius 31.9757
rwrist -2.29735
rhand -8.60707 -17.7204
rfingers 7.12502
rthumb 17.3246 -46.9683
lclavicle 3.12092e-014 7.31528e-014
lhumerus -28.721 -30.4409 85.2728
lradius 36.1224
lwrist 48.7262
lhand -24.6597 -5.19504
lfingers 7.12502
lthumb 1.8402 24.7768
rfemur -30.72 6.25966 21.1172
rtibia 61.1148
rfoot -7.33637 2.80192
rtoes -23.3944
lfemur -34.6945 -13.1516 -21.7506
ltibia 35.7531
lfoot -14.8309 5.59383
ltoes -11.0551
312
root 4.87978 15.6556 1.2365 -162.343 0.438777 -179.44
lowerback -14.8337 3.54997 -7.6493
upperback -5.16835 7.63546 -8.41855
thorax 3.03466 4.38817 -3.26113
lowerneck 2.97229 22.3662 22.7318
upperneck 4.22153 30.8903 -13.4938
head 6.24078 15.4166 -4.46384
rclavicle -1.8487e-014 4.45278e-014
rhumerus -51.6289 -8.76513 -77.755
rradius 32.711
rwrist -3.07067
rhand -10.2529 -17.5279
rfingers 7.12502
rthumb 15.7401 -46.9078
lclavicle -1.8487e-014 4.45278e-014
lhumerus -28.7881 -31.0877 85.6001
lradius 35.5814
lwrist 47.9206
lhand -24.5192 -5.19165
lfingers 7.12502
lthumb 1.97596 24.7789
rfemur -31.8481 6.02835 20.9001
rtibia 62.6073
rfoot -7.76186 1.68569
rtoes -23.2149
lfemur -34.3116 -13.3651 -22.0475
ltibia 35.4845
lfoot -14.8785 5.3189
ltoes -10.9886
313
root 4.87506 15.6514 1.1943 -162.431 -0.0311423 -179.656
lowerback -14.579 3.52682 -7.82887
upperback -5.07828 7.58454 -8.34072
thorax 2.95889 4.35716 -3.10862
lowerneck 3.09116 22.3498 22.718
upperneck 4.11719 30.9075 -13.6704
head 6.22146 15.4275 -4.52403
rclavicle -1.8487e-014 -1.39944e-013
rhumerus -51.3181 -8.84804 -77.7681
rradius 33.448
rwrist -3.81636
rhand -11.8518 -17.3773
rfingers 7.12502
rthumb 14.1998 -46.8719
lclavicle -1.8487e-014 -1.39944e-013
lhumerus -28.842 -31.6844 85.9103
lradius 34.9987
lwrist 47.0345
lhand -24.3513 -5.15041
lfingers 7.12502
lthumb 2.13806 24.8186
rfemur -32.9863 5.8303 20.7005
rtibia 64.0029
rfoot -8.12675 0.549226
rtoes -23.0366
lfemur -33.9385 -13.586 -22.3132
ltibia 35.2201
lfoot -14.9351 5.02609
ltoes -10.9063
314
root 4.87162 15.6479 1.15134 -162.502 -0.536529 -179.847
lowerback -14.381 5.1743 -8.41695
upperback -4.74451 7.15041 -8.32957
thorax 2.97325 2.9867 -2.94512
lowerneck 3.18974 22.3356 22.701
upperneck 4.03625 30.9238 -13.835
head 6.2101 15.4374 -4.57744
rclavicle -2.90226e-014 -8.5875e-014
rhumerus -50.9828 -8.97424 -77.7503
rradius 34.1837
rwrist -4.51835
rhand -13.3672 -17.2706
rfingers 7.12502
rthumb 12.7392 -46.862
lclavicle -2.90226e-014 -8.5875e-014
lhumerus -28.8633 -32.2223 86.1924
lradius 34.3786
lwrist 46.0837
lhand -24.1355 -5.09162
lfingers 7.12502
lthumb 2.34654 24.8752
rfemur -34.1351 5.67085 20.5223
rtibia 65.2886
rfoot -8.42619 -0.546128
rtoes -22.9112
lfemur -33.5917 -13.809 -22.5377
ltibia 34.9709
lfoot -15.0042 4.71283
ltoes -10.8044
315
root 4.86918 15.6453 1.10746 -162.542 -1.07962 -180.011
lowerback -14.1852 5.11197 -8.53121
upperback -4.65804 7.09278 -8.22245
thorax 2.93202 2.97291 -2.78931
lowerneck 3.26944 22.3255 22.6925
upperneck 3.99077 30.9423 -13.9821
head 6.2115 15.4478 -4.62223
rclavicle -1.55052e-014 1.90833e-014
rhumerus -50.6408 -9.14435 -77.7109
rradius 34.9246
rwrist -5.18028
rhand -14.7578 -17.2424
rfingers 7.12502
rthumb 11.3983 -46.9126
lclavicle -1.55052e-014 1.90833e-014
lhumerus -28.8636 -32.691 86.4361
lradius 33.7277
lwrist 45.0722
lhand -23.86 -5.05326
lfingers 7.12502
lthumb 2.61256 24.9105
rfemur -35.3023 5.54669 20.3629
rtibia 66.4559
rfoot -8.67508 -1.54218
rtoes -22.7902
lfemur -33.2905 -14.0317 -22.7151
ltibia 34.7433
lfoot -15.0885 4.37296
ltoes -10.6791
316
root 4.86755 15.6435 1.06254 -162.544 -1.65927 -180.146
lowerback -14.0326 5.05043 -8.60825
upperback -4.57306 7.03748 -8.11091
thorax 2.91743 2.95968 -2.64518
lowerneck 3.30557 22.3185 22.6744
upperneck 3.97888 30.9565 -14.1061
head 6.22417 15.4544 -4.65438
rclavicle -1.55052e-014 -6.36111e-014
rhumerus -50.2927 -9.35178 -77.6595
rradius 35.6922
rwrist -5.83012
rhand -15.9977 -17.2944
rfingers 7.12502
rthumb 10.2024 -47.027
lclavicle -1.55052e-014 -6.36111e-014
lhumerus -28.822 -33.0984 86.6359
lradius 33.0505
lwrist 44.0162
lhand -23.5611 -5.0163
lfingers 7.12502
lthumb 2.90125 24.9437
rfemur -36.4943 5.45693 20.2169
rtibia 67.4999
rfoot -8.89636 -2.39586
rtoes -22.6583
lfemur -33.0446 -14.2541 -22.8441
ltibia 34.5382
lfoot -15.1875 4.0069
ltoes -10.54
